Coordinates
version=1
nRows=6
nColumns=63
inDegrees=yes

Units are S.I. units (second, meters, Newtons, ...)
If the header above contains a line with 'inDegrees', this indicates whether rotational values are in degrees (yes) or radians (no).

endheader
time	pelvis_tilt	pelvis_list	pelvis_rotation	pelvis_tx	pelvis_ty	pelvis_tz	hip_flexion_r	hip_adduction_r	hip_rotation_r	knee_angle_r	knee_angle_r_beta	ankle_angle_r	subtalar_angle_r	mtp_angle_r	hip_flexion_l	hip_adduction_l	hip_rotation_l	knee_angle_l	knee_angle_l_beta	ankle_angle_l	subtalar_angle_l	mtp_angle_l	L5_S1_Flex_Ext	L5_S1_Lat_Bending	L5_S1_axial_rotation	L4_L5_Flex_Ext	L4_L5_Lat_Bending	L4_L5_axial_rotation	L3_L4_Flex_Ext	L3_L4_Lat_Bending	L3_L4_axial_rotation	L2_L3_Flex_Ext	L2_L3_Lat_Bending	L2_L3_axial_rotation	L1_L2_Flex_Ext	L1_L2_Lat_Bending	L1_L2_axial_rotation	L1_T12_Flex_Ext	L1_T12_Lat_Bending	L1_T12_axial_rotation	Abs_r3	Abs_r2	Abs_r1	Abs_t1	Abs_t2	neck_flexion	neck_bending	neck_rotation	arm_flex_r	arm_add_r	arm_rot_r	elbow_flex_r	pro_sup_r	wrist_flex_r	wrist_dev_r	arm_flex_l	arm_add_l	arm_rot_l	elbow_flex_l	pro_sup_l	wrist_flex_l	wrist_dev_l
      4.95000000	     -1.26169788	     -0.45107586	     93.16132956	      0.25627050	      0.93862520	      0.27830874	     -2.52667824	     -1.84330475	    -18.47815307	      2.79153213	      0.04872143	     15.54735852	     15.96771482	      0.00000000	     -0.81319892	      2.88144765	      3.26259716	      4.92797150	      0.08600933	     10.02247223	    -16.53816092	      0.00000000	      0.00440791	     -0.17024426	      0.58682010	      0.00818593	     -0.22642486	      0.62349636	      0.00724176	     -0.41393189	      0.62349636	      0.00503780	     -0.41393189	      0.51346759	      0.00409319	     -0.34716209	      0.47679133	      0.00251868	     -0.26370836	      0.44011508	      0.03148527	     -1.92583710	      3.26371735	      0.00000000	      0.00000000	     15.76013110	      0.81761539	     14.41704379	      2.26682586	     -9.18384401	     47.53106251	     21.69740677	     73.09133813	      0.54135330	      4.34041329	     11.04454778	    -14.77105882	     88.14313549	     26.54987507	     66.21880300	    -14.24338319	      2.75597326
      4.96666667	     -1.17392001	     -0.36400881	     93.15628407	      0.25626532	      0.93890997	      0.27852449	     -2.55708230	     -1.75405379	    -18.86517730	      2.82898475	      0.04937510	     15.04934477	     16.13048121	      0.00000000	     -0.96575806	      2.77845806	      3.22821362	      4.66144577	      0.08135758	     10.05843880	    -16.45772421	      0.00000000	      0.00245585	     -0.16098513	      0.51174691	      0.00456076	     -0.21411022	      0.54373109	      0.00403472	     -0.39141925	      0.54373109	      0.00280679	     -0.39141925	      0.44777855	      0.00228050	     -0.32828088	      0.41579436	      0.00140327	     -0.24936597	      0.38381018	      0.01754190	     -1.82109600	      2.84618279	      0.00000000	      0.00000000	     15.47576706	      0.83323681	     14.48217503	      2.92986858	     -9.26870093	     50.21390728	     21.27642684	     72.42116781	      0.49170733	      3.80651604	     10.74807278	    -14.76023429	     87.42114496	     26.45710404	     65.14166902	    -14.21730372	      2.63801215
      4.98333333	     -1.11181345	     -0.30639095	     93.19256723	      0.25622544	      0.93914860	      0.27853755	     -2.59080220	     -1.68656978	    -19.31840586	      2.85507943	      0.04983054	     14.57154146	     16.29365109	      0.00000000	     -1.13285151	      2.70005091	      3.12758362	      4.31633528	      0.07533426	     10.31667333	    -16.12850069	      0.00000000	      0.01002379	     -0.15570418	      0.45684817	      0.01861518	     -0.20708656	      0.48540118	      0.01646808	     -0.37857914	      0.48540118	      0.01145619	     -0.37857914	      0.39974214	      0.00930809	     -0.31751196	      0.37118913	      0.00572759	     -0.24118577	      0.34263612	      0.07159893	     -1.76135681	      2.54085244	      0.00000000	      0.00000000	     15.19038036	      0.78822517	     14.32940553	      3.45007198	     -9.34559655	     52.38447808	     20.96681458	     72.74606728	      0.41918994	      3.24706537	     10.50261353	    -14.72338710	     86.78204912	     26.36919739	     64.10603896	    -14.00870368	      2.67823251
      5.00000000	     -1.08820849	     -0.28728947	     93.12158977	      0.25641798	      0.93932754	      0.27840700	     -2.57562666	     -1.66291649	    -19.60518176	      2.91189708	      0.05082219	     14.19417875	     16.33361238	      0.00000000	     -1.30998049	      2.65877458	      2.86707233	      3.89539418	      0.06798745	     10.64462142	    -15.63419725	      0.00000000	      0.02381679	     -0.15550984	      0.45526419	      0.04423016	     -0.20682808	      0.48371820	      0.03912861	     -0.37810661	      0.48371820	      0.02722021	     -0.37810661	      0.39835617	      0.02211627	     -0.31711566	      0.36990216	      0.01360891	     -0.24088474	      0.34144814	      0.17012095	     -1.75915836	      2.53204286	      0.00000000	      0.00000000	     14.95810582	      0.72968090	     13.92538193	      3.81548409	     -9.39166870	     54.03228850	     20.74933774	     73.44585424	      0.22227327	      2.86093475	     10.38462443	    -14.65519164	     86.56586048	     26.23824302	     63.17666525	    -13.81520392	      2.59463584
      5.01666667	     -1.08470225	     -0.29724782	     93.24884100	      0.25638616	      0.93947115	      0.27819091	     -2.58819672	     -1.64368475	    -20.22165522	      2.93208242	      0.05117449	     13.88857583	     16.58150815	      0.00000000	     -1.40812696	      2.62796736	      2.70995538	      3.58317728	      0.06253824	     11.09160874	    -14.87244616	      0.00000000	      0.04032443	     -0.15814896	      0.44922196	      0.07488650	     -0.21033812	      0.47729834	      0.06624901	     -0.38452338	      0.47729834	      0.04608679	     -0.38452338	      0.39306922	      0.03744527	     -0.32249736	      0.36499284	      0.02304138	     -0.24497274	      0.33691647	      0.28803339	     -1.78901265	      2.49843779	      0.00000000	      0.00000000	     14.75152704	      0.83225748	     13.42904144	      4.07628728	     -9.43139216	     55.63537805	     20.54653018	     73.50244887	     -0.06614052	      2.43830975	     10.41275126	    -14.59247706	     86.83099327	     26.14733134	     61.97207214	    -13.63650104	      2.45416820
      5.03333333	     -1.09644525	     -0.32814971	     93.33814019	      0.25646872	      0.93953688	      0.27788215	     -2.58354313	     -1.62882055	    -20.60514777	      2.94226187	      0.05135216	     13.79301272	     16.58732243	      0.00000000	     -1.50741385	      2.61142103	      2.60698388	      3.26693741	      0.05701881	     11.38076922	    -14.25347783	      0.00000000	      0.05634425	     -0.16182749	      0.49220620	      0.10463691	     -0.21523057	      0.52296909	      0.09256797	     -0.39346737	      0.52296909	      0.06439585	     -0.39346737	      0.43068043	      0.05232127	     -0.32999863	      0.39991754	      0.03219511	     -0.25067079	      0.36915465	      0.40246137	     -1.83062497	      2.73750324	      0.00000000	      0.00000000	     14.63376789	      1.08959775	     12.89555930	      4.00122805	     -9.49142169	     56.04574116	     20.59910142	     73.31950454	     -0.41139183	      2.32702721	     10.52777701	    -14.53341308	     87.10263455	     26.13008349	     61.19328468	    -13.43446811	      2.42456800
